<?xml version="1.0" standalone="no"?>
<!DOCTYPE svg PUBLIC "-//W3C//DTD SVG 20010904//EN"
 "http://www.w3.org/TR/2001/REC-SVG-20010904/DTD/svg10.dtd">
<svg version="1.0" xmlns="http://www.w3.org/2000/svg"
 width="512.000000pt" height="512.000000pt" viewBox="0 0 512.000000 512.000000"
 preserveAspectRatio="xMidYMid meet">
<metadata>
Created by potrace 1.16, written by Peter Selinger 2001-2019
</metadata>
<g transform="translate(0.000000,512.000000) scale(0.100000,-0.100000)"
fill="#000000" stroke="none">
<path d="M2458 4713 c6 -2 18 -2 25 0 6 3 1 5 -13 5 -14 0 -19 -2 -12 -5z"/>
<path d="M2075 4236 c-416 -135 -861 -541 -1070 -979 -130 -270 -176 -515
-156 -814 6 -87 16 -175 22 -196 5 -20 7 -42 4 -47 -3 -6 -1 -10 5 -10 6 0 10
-8 9 -17 -1 -10 0 -25 3 -33 4 -8 14 -44 23 -79 9 -35 26 -84 37 -110 12 -25
22 -53 24 -61 2 -8 8 -16 14 -18 5 -2 8 -8 4 -13 -3 -5 3 -9 13 -9 15 0 16 -2
3 -10 -12 -8 -12 -10 -1 -10 8 0 12 -3 8 -6 -3 -3 3 -15 13 -27 11 -11 17 -24
14 -29 -3 -4 0 -8 5 -8 6 0 11 -6 11 -14 0 -8 3 -16 8 -18 10 -4 82 -95 82
-103 0 -8 140 -175 147 -175 3 0 -11 21 -30 48 -82 113 -224 380 -270 507 -62
173 -105 464 -92 620 6 74 6 78 -9 60 -15 -19 -15 -18 -15 20 -1 115 44 296
112 458 27 66 46 97 57 97 9 0 26 20 39 48 40 83 113 204 175 286 207 281 469
482 794 611 50 21 95 41 98 46 7 13 -2 11 -81 -15z"/>
<path d="M2448 4243 c6 -2 18 -2 25 0 6 3 1 5 -13 5 -14 0 -19 -2 -12 -5z"/>
<path d="M3170 4200 c8 -6 66 -39 127 -73 129 -71 272 -170 350 -241 31 -28
53 -42 53 -33 0 45 -272 244 -430 315 -73 33 -125 49 -100 32z"/>
<path d="M2198 4193 c7 -3 16 -2 19 1 4 3 -2 6 -13 5 -11 0 -14 -3 -6 -6z"/>
<path d="M2158 4183 c7 -3 16 -2 19 1 4 3 -2 6 -13 5 -11 0 -14 -3 -6 -6z"/>
<path d="M3575 3850 c21 -22 41 -40 44 -40 3 0 -13 18 -34 40 -21 22 -41 40
-44 40 -3 0 13 -18 34 -40z"/>
<path d="M962 3702 c-48 -61 -126 -190 -185 -308 -63 -126 -132 -302 -123
-311 11 -11 22 9 51 92 37 102 143 312 221 436 81 128 97 168 36 91z"/>
<path d="M4363 3278 c3 -7 20 -49 37 -93 18 -44 36 -84 41 -89 14 -15 11 26
-5 70 -7 22 -12 47 -10 56 1 10 -2 20 -7 24 -5 3 -6 10 -3 16 4 6 2 8 -3 5 -6
-4 -16 0 -23 8 -15 18 -34 20 -27 3z"/>
<path d="M2662 3073 c-66 -5 -72 -18 -72 -141 1 -98 12 -161 32 -173 7 -5 48
-9 91 -9 75 0 77 1 77 25 0 23 -3 24 -67 27 l-68 3 -3 43 -3 42 70 0 c64 0 71
2 71 20 0 17 -8 19 -72 22 -71 3 -73 4 -76 30 -6 50 12 67 76 70 49 3 57 6 57
23 0 22 -18 25 -113 18z"/>
<path d="M2824 3069 c-3 -6 17 -45 45 -86 l52 -76 -51 -77 c-27 -42 -50 -79
-50 -83 0 -4 11 -7 25 -7 18 0 33 12 55 43 16 23 35 50 42 60 12 17 17 13 56
-42 33 -47 48 -61 68 -61 24 0 24 1 10 28 -8 15 -33 54 -55 87 l-40 59 20 31
c43 64 63 115 52 126 -16 16 -28 5 -68 -57 -19 -30 -37 -54 -39 -54 -2 0 -18
23 -36 50 -39 61 -71 83 -86 59z"/>
<path d="M2125 3058 c-2 -7 -27 -77 -55 -155 -27 -78 -50 -147 -50 -153 0 -6
10 -10 23 -8 15 2 28 17 41 46 l20 43 55 -3 c54 -3 57 -4 74 -40 l17 -38 65 0
c63 0 65 1 65 25 0 23 -3 25 -49 25 l-50 0 -15 54 c-9 30 -30 91 -47 135 -29
76 -33 81 -60 81 -16 0 -32 -6 -34 -12z m69 -150 c6 -27 5 -28 -34 -28 -39 0
-40 1 -34 28 4 15 14 43 22 62 l15 35 12 -35 c6 -19 15 -47 19 -62z"/>
<path d="M2422 2913 l3 -158 83 -3 c82 -3 82 -3 82 23 0 24 -2 25 -60 25 l-59
0 -3 133 c-3 129 -4 132 -26 135 l-23 3 3 -158z"/>
<path d="M911 2744 c0 -11 3 -14 6 -6 3 7 2 16 -1 19 -3 4 -6 -2 -5 -13z"/>
<path d="M4147 2698 c5 -24 7 -108 7 -188 -2 -174 -26 -303 -86 -460 -22 -58
-40 -111 -41 -117 0 -7 -4 -13 -9 -13 -5 0 -7 -3 -5 -7 3 -5 -20 -56 -52 -116
-158 -301 -431 -578 -714 -723 -115 -59 -284 -119 -366 -130 -28 -4 -51 -10
-51 -14 0 -4 -102 -6 -227 -5 -207 2 -238 5 -338 29 -145 35 -221 60 -330 111
-370 172 -640 452 -807 837 -23 53 -44 95 -46 93 -5 -4 22 -74 75 -200 19 -44
43 -107 55 -140 11 -33 26 -67 33 -75 7 -8 21 -31 30 -50 15 -28 207 -227 257
-265 7 -6 33 -27 58 -46 25 -20 59 -44 75 -52 17 -9 41 -26 55 -37 l25 -21
-35 17 c-19 9 -52 28 -73 42 -31 21 -40 23 -50 12 -9 -10 -9 -11 1 -6 7 4 28
-5 50 -22 37 -29 145 -96 253 -158 152 -86 376 -143 596 -151 170 -7 274 5
473 54 80 19 155 37 167 38 13 2 52 20 88 40 36 20 70 33 77 29 6 -4 8 -3 5 3
-4 6 50 48 119 94 143 93 208 149 268 228 23 30 52 69 66 87 14 18 39 52 57
76 17 23 41 55 52 70 29 37 222 397 227 422 2 12 21 64 42 116 21 52 44 118
51 145 18 75 30 101 54 114 21 11 21 11 -4 6 -31 -6 -28 -17 -35 165 -6 172
-8 186 -34 200 -19 10 -20 9 -13 -32z m-2331 -1626 c-5 -4 -66 26 -66 33 0 3
16 -3 35 -12 19 -9 33 -18 31 -21z m537 -169 c-7 -2 -19 -2 -25 0 -7 3 -2 5
12 5 14 0 19 -2 13 -5z m144 -10 c-20 -2 -52 -2 -70 0 -17 2 0 4 38 4 39 0 53
-2 32 -4z m93 -3 c0 -6 -11 -10 -25 -10 -14 0 -25 4 -25 8 0 4 11 9 25 10 14
1 25 -3 25 -8z"/>
<path d="M4460 2665 c0 -8 2 -15 4 -15 2 0 6 7 10 15 3 8 1 15 -4 15 -6 0 -10
-7 -10 -15z"/>
<path d="M2205 2638 c-3 -8 -4 -86 -3 -173 3 -143 5 -160 21 -163 15 -3 17 5
17 57 l0 61 50 0 50 0 0 -61 c0 -52 2 -60 18 -57 15 3 17 18 17 153 0 135 -2
150 -17 153 -16 3 -18 -6 -18 -72 l0 -76 -50 0 -49 0 -3 92 c-2 62 -7 93 -15
96 -7 2 -15 -3 -18 -10z"/>
<path d="M3392 2473 c3 -149 5 -168 20 -171 16 -3 18 10 20 129 l3 132 85
-109 c94 -120 115 -144 130 -144 6 0 10 57 10 151 0 138 -1 150 -17 147 -15
-3 -19 -19 -23 -108 l-5 -105 -55 70 c-31 39 -73 94 -94 123 -23 32 -45 52
-57 52 -19 0 -19 -7 -17 -167z"/>
<path d="M1720 2603 c-46 -17 -42 -28 11 -33 l54 -5 0 -96 c0 -110 -14 -139
-67 -139 -57 0 -98 34 -98 81 0 23 -28 25 -37 3 -9 -23 26 -84 62 -106 44 -28
121 -20 152 16 21 25 23 36 23 157 l0 129 -42 -1 c-24 0 -50 -3 -58 -6z"/>
<path d="M1924 2591 c-59 -36 -83 -151 -46 -221 20 -38 89 -80 132 -80 39 0
101 41 121 80 38 70 11 181 -53 220 -42 26 -113 26 -154 1z m121 -27 c85 -40
83 -192 -3 -225 -98 -38 -182 91 -122 189 31 51 71 62 125 36z"/>
<path d="M2410 2454 c0 -143 1 -155 18 -152 14 3 18 19 22 108 l5 105 59 -97
c98 -163 108 -159 104 43 -3 127 -5 144 -20 147 -15 3 -18 -9 -20 -111 l-3
-115 -68 114 c-38 63 -75 114 -83 114 -11 0 -14 -28 -14 -156z"/>
<path d="M2793 2600 c-40 -16 -55 -70 -30 -104 7 -10 49 -30 93 -44 78 -27 79
-27 79 -62 0 -61 -63 -76 -177 -40 -91 29 -101 24 -33 -15 71 -40 126 -51 183
-35 49 13 75 46 74 92 -1 43 -29 68 -108 93 -76 25 -96 44 -74 70 12 15 26 17
88 11 56 -4 73 -3 70 7 -11 32 -111 48 -165 27z"/>
<path d="M3113 2589 c-71 -45 -94 -168 -44 -237 27 -39 98 -67 144 -58 143 27
186 211 68 292 -46 31 -122 33 -168 3z m144 -35 c89 -56 57 -204 -47 -220
-128 -20 -180 157 -67 227 35 21 74 18 114 -7z"/>
<path d="M1924 2127 c-3 -8 -4 -54 -2 -103 l3 -89 60 0 c47 0 60 3 60 15 0 10
-12 16 -37 18 l-38 3 0 69 c0 38 -3 75 -6 84 -7 19 -33 21 -40 3z"/>
<path d="M2350 2035 c0 -96 2 -106 18 -103 15 3 17 16 17 103 0 87 -2 100 -17
103 -16 3 -18 -7 -18 -103z"/>
<path d="M2467 2133 c-4 -3 -7 -51 -7 -105 0 -90 1 -98 20 -98 16 0 19 8 22
58 l3 57 40 -57 c58 -84 70 -76 70 47 0 87 -2 100 -17 103 -16 3 -18 -5 -18
-60 l0 -63 -26 40 c-31 46 -65 85 -74 85 -4 0 -10 -3 -13 -7z"/>
<path d="M2762 2128 c-72 -20 -94 -126 -37 -175 51 -44 150 -23 175 37 35 85
-44 165 -138 138z m98 -70 c13 -25 13 -31 0 -55 -13 -23 -24 -29 -57 -31 -35
-3 -44 1 -58 21 -18 29 -12 72 14 87 9 5 32 9 51 7 26 -1 38 -9 50 -29z"/>
<path d="M2980 2035 c0 -96 2 -106 18 -103 13 2 18 16 22 57 l5 54 40 -54 c22
-29 48 -55 58 -57 15 -3 17 7 17 102 0 98 -1 106 -20 106 -16 0 -19 -8 -22
-61 l-3 -61 -40 58 c-22 32 -48 60 -58 62 -15 3 -17 -7 -17 -103z"/>
<path d="M3303 2128 c-6 -10 -50 -106 -80 -175 -10 -24 29 -28 48 -5 23 29 74
30 89 2 11 -21 35 -27 45 -10 3 6 -8 47 -26 93 -34 85 -46 107 -60 107 -4 0
-11 -6 -16 -12z m30 -98 c4 -15 0 -20 -14 -20 -20 0 -23 8 -13 34 7 20 20 13
27 -14z"/>
<path d="M1041 2114 c0 -11 3 -14 6 -6 3 7 2 16 -1 19 -3 4 -6 -2 -5 -13z"/>
<path d="M1616 2099 c-60 -71 -15 -169 77 -169 78 0 129 60 107 126 -17 49
-53 74 -110 74 -42 0 -52 -4 -74 -31z m126 -26 c40 -36 10 -103 -45 -103 -58
0 -85 51 -51 98 18 27 69 30 96 5z"/>
<path d="M2130 2030 c0 -91 2 -101 18 -98 12 2 18 14 20 40 3 33 6 37 35 40
44 4 43 32 0 36 -25 3 -33 8 -33 24 0 18 5 20 58 16 51 -3 57 -1 57 17 0 18
-8 20 -77 23 l-78 3 0 -101z"/>
<path d="M2388 763 c7 -3 16 -2 19 1 4 3 -2 6 -13 5 -11 0 -14 -3 -6 -6z"/>
<path d="M2748 523 c7 -3 16 -2 19 1 4 3 -2 6 -13 5 -11 0 -14 -3 -6 -6z"/>
</g>
</svg>